# Blender v2.69 (sub 0) OBJ File: ''
# www.blender.org
mtllib map.mtl
o Fence
v 0.000000 -0.000000 0.100000
v -0.075000 -0.000000 0.075000
v -0.100000 0.000000 0.000000
v 0.000000 1.000000 0.100000
v -0.075000 1.000000 0.075000
v -0.100000 1.000000 0.000000
v -0.075000 1.000000 -0.075000
v 0.075000 1.000000 0.075000
v 0.100000 0.000000 0.000000
v 0.100000 1.000000 0.000000
v 0.075000 -0.000000 0.075000
v 0.075000 0.000000 -0.075000
v 0.075000 1.000000 -0.075000
v 0.000000 0.000000 -0.100000
v 0.000000 1.000000 -0.100000
v -0.075000 0.000000 -0.075000
v 0.000000 -0.000042 128.100006
v -0.075000 -0.000042 128.074997
v -0.100000 -0.000042 128.000000
v 0.000000 0.999958 128.100006
v -0.075000 0.999958 128.074997
v -0.100000 0.999958 128.000000
v -0.075000 0.999958 127.925003
v 0.075000 0.999958 128.074997
v 0.100000 -0.000042 128.000000
v 0.100000 0.999958 128.000000
v 0.075000 -0.000042 128.074997
v 0.075000 -0.000042 127.925003
v 0.075000 0.999958 127.925003
v 0.000000 -0.000042 127.900002
v 0.000000 0.999958 127.900002
v -0.075000 -0.000042 127.925003
v 128.000000 -0.000042 128.100006
v 127.925003 -0.000042 128.074997
v 127.900002 -0.000042 128.000000
v 128.000000 0.999958 128.100006
v 127.925003 0.999958 128.074997
v 127.900002 0.999958 128.000000
v 127.925003 0.999958 127.925003
v 128.074997 0.999958 128.074997
v 128.100006 -0.000042 128.000000
v 128.100006 0.999958 128.000000
v 128.074997 -0.000042 128.074997
v 128.074997 -0.000042 127.925003
v 128.074997 0.999958 127.925003
v 128.000000 -0.000042 127.900002
v 128.000000 0.999958 127.900002
v 127.925003 -0.000042 127.925003
v 128.000000 -0.000000 0.100006
v 127.925003 -0.000000 0.074997
v 127.900002 0.000000 0.000000
v 128.000000 1.000000 0.100006
v 127.925003 1.000000 0.074997
v 127.900002 1.000000 0.000000
v 127.925003 1.000000 -0.074997
v 128.074997 1.000000 0.074997
v 128.100006 0.000000 0.000000
v 128.100006 1.000000 0.000000
v 128.074997 -0.000000 0.074997
v 128.074997 0.000000 -0.074997
v 128.074997 1.000000 -0.074997
v 128.000000 0.000000 -0.099998
v 128.000000 1.000000 -0.099998
v 127.925003 0.000000 -0.074997
vn 0.000000 -0.642354 0.766381
vn -0.555376 -0.618915 0.555376
vn -0.766381 -0.642354 0.000000
vn -0.555376 -0.618915 -0.555376
vn 0.555376 -0.618915 0.555376
vn 0.766381 -0.642354 0.000000
vn 0.555376 -0.618915 -0.555376
vn 0.000000 -0.642354 -0.766381
vn 0.000000 -0.642323 0.766411
vn -0.555345 -0.618946 0.555376
vn -0.555437 -0.618915 0.555315
vn -0.555345 -0.618946 -0.555376
vn 0.555437 -0.618915 0.555315
vn 0.555345 -0.618946 0.555376
vn 0.555406 -0.618915 -0.555345
vn 0.555345 -0.618946 -0.555376
vn -0.555406 -0.618915 -0.555345
vn -0.555345 -0.618976 0.555376
vn 0.555406 -0.618915 0.555345
vn 0.766411 -0.642323 0.000000
vn 0.555315 -0.618976 0.555376
vn 0.555376 -0.618946 -0.555376
vn 0.555315 -0.618946 -0.555406
vn -0.555376 -0.618915 -0.555345
vn 0.000000 -0.642323 0.766381
vn -0.555376 -0.618946 0.555345
vn -0.555376 -0.618946 -0.555376
vn 0.766381 -0.642323 0.000000
vn 0.555345 -0.618946 -0.555406
usemtl fence
s 1
f 1//1 2//2 3//3
f 4//1 5//2 6//3
f 6//3 7//4 3//3
f 5//2 6//3 2//2
f 5//2 1//1 4//1
f 4//1 1//1 8//5
f 9//6 10//6 11//5
f 12//7 13//7 9//6
f 14//8 15//8 12//7
f 7//4 15//8 16//4
f 11//5 1//1 9//6
f 1//1 3//3 9//6
f 3//3 16//4 14//8
f 9//6 3//3 12//7
f 3//3 14//8 12//7
f 8//5 4//1 10//6
f 4//1 6//3 10//6
f 6//3 7//4 15//8
f 10//6 6//3 13//7
f 6//3 15//8 13//7
f 7//4 16//4 3//3
f 6//3 3//3 2//2
f 2//2 1//1 5//2
f 1//1 11//5 8//5
f 10//6 8//5 11//5
f 13//7 10//6 9//6
f 15//8 13//7 12//7
f 15//8 14//8 16//4
f 17//9 18//10 19//3
f 20//1 21//11 22//3
f 22//3 23//12 19//3
f 21//11 22//3 18//10
f 21//11 17//9 20//1
f 20//1 17//9 24//13
f 25//6 26//6 27//14
f 28//15 29//16 25//6
f 30//8 31//8 28//15
f 23//12 31//8 32//17
f 27//14 17//9 25//6
f 17//9 19//3 25//6
f 19//3 32//17 30//8
f 25//6 19//3 28//15
f 19//3 30//8 28//15
f 24//13 20//1 26//6
f 20//1 22//3 26//6
f 22//3 23//12 31//8
f 26//6 22//3 29//16
f 22//3 31//8 29//16
f 23//12 32//17 19//3
f 22//3 19//3 18//10
f 18//10 17//9 21//11
f 17//9 27//14 24//13
f 26//6 24//13 27//14
f 29//16 26//6 25//6
f 31//8 29//16 28//15
f 31//8 30//8 32//17
f 33//9 34//18 35//3
f 36//1 37//11 38//3
f 38//3 39//12 35//3
f 37//11 38//3 34//18
f 37//11 33//9 36//1
f 36//1 33//9 40//19
f 41//20 42//6 43//21
f 44//22 45//23 41//20
f 46//8 47//8 44//22
f 39//12 47//8 48//24
f 43//21 33//9 41//20
f 33//9 35//3 41//20
f 35//3 48//24 46//8
f 41//20 35//3 44//22
f 35//3 46//8 44//22
f 40//19 36//1 42//6
f 36//1 38//3 42//6
f 38//3 39//12 47//8
f 42//6 38//3 45//23
f 38//3 47//8 45//23
f 39//12 48//24 35//3
f 38//3 35//3 34//18
f 34//18 33//9 37//11
f 33//9 43//21 40//19
f 42//6 40//19 43//21
f 45//23 42//6 41//20
f 47//8 45//23 44//22
f 47//8 46//8 48//24
f 49//25 50//26 51//3
f 52//25 53//26 54//3
f 54//3 55//27 51//3
f 53//26 54//3 50//26
f 53//26 49//25 52//25
f 52//25 49//25 56//14
f 57//28 58//28 59//14
f 60//29 61//29 57//28
f 62//8 63//8 60//29
f 55//27 63//8 64//27
f 59//14 49//25 57//28
f 49//25 51//3 57//28
f 51//3 64//27 62//8
f 57//28 51//3 60//29
f 51//3 62//8 60//29
f 56//14 52//25 58//28
f 52//25 54//3 58//28
f 54//3 55//27 63//8
f 58//28 54//3 61//29
f 54//3 63//8 61//29
f 55//27 64//27 51//3
f 54//3 51//3 50//26
f 50//26 49//25 53//26
f 49//25 59//14 56//14
f 58//28 56//14 59//14
f 61//29 58//28 57//28
f 63//8 61//29 60//29
f 63//8 62//8 64//27
o Fencelong
v 0.000000 1.000000 0.080000
v 0.000000 1.060000 0.060000
v 0.000000 1.080000 0.000000
v 128.000000 1.000000 0.080000
v 128.000000 1.060000 0.060000
v 128.000000 1.080000 0.000000
v 128.000000 1.060000 -0.060000
v 128.000000 0.940000 0.060000
v 0.000000 0.920000 0.000000
v 128.000000 0.920000 0.000000
v 0.000000 0.940000 0.060000
v 0.000000 0.940000 -0.060000
v 128.000000 0.940000 -0.060000
v 0.000000 1.000000 -0.080000
v 128.000000 1.000000 -0.080000
v 0.000000 1.060000 -0.060000
v 0.000000 0.999958 128.080002
v 0.000000 1.059958 128.059998
v 0.000000 1.079958 128.000000
v 128.000000 0.999958 128.080002
v 128.000000 1.059958 128.059998
v 128.000000 1.079958 128.000000
v 128.000000 1.059958 127.940002
v 128.000000 0.939958 128.059998
v 0.000000 0.919958 128.000000
v 128.000000 0.919958 128.000000
v 0.000000 0.939958 128.059998
v 0.000000 0.939958 127.940002
v 128.000000 0.939958 127.940002
v 0.000000 0.999958 127.919998
v 128.000000 0.999958 127.919998
v 0.000000 1.059958 127.940002
v -0.080008 0.999990 0.000000
v -0.060003 1.059990 -0.000008
v -0.000006 1.079990 0.000000
v -0.079996 0.999969 127.999992
v -0.059992 1.059969 127.999985
v 0.000006 1.079969 128.000000
v 0.060003 1.059969 128.000000
v -0.059992 0.939969 127.999985
v -0.000006 0.919990 0.000000
v 0.000006 0.919969 128.000000
v -0.060003 0.939990 -0.000008
v 0.059991 0.939990 0.000000
v 0.060003 0.939969 128.000000
v 0.079995 0.999990 0.000000
v 0.080007 0.999969 128.000000
v 0.059991 1.059990 0.000000
v 127.919991 0.999990 0.000000
v 127.939995 1.059990 -0.000008
v 127.999992 1.079990 0.000000
v 127.920006 0.999969 127.999992
v 127.940010 1.059969 127.999985
v 128.000000 1.079969 128.000000
v 128.059998 1.059969 128.000000
v 127.940010 0.939969 127.999985
v 127.999992 0.919990 0.000000
v 128.000000 0.919969 128.000000
v 127.939995 0.939990 -0.000008
v 128.059998 0.939990 0.000000
v 128.059998 0.939969 128.000000
v 128.080002 0.999990 0.000000
v 128.080002 0.999969 128.000000
v 128.059998 1.059990 0.000000
vn -0.642354 0.000000 0.766381
vn -0.618915 0.555376 0.555376
vn -0.642354 0.766381 0.000000
vn -0.618854 0.555498 0.555315
vn -0.619007 0.555254 -0.555437
vn -0.618915 -0.555376 0.555376
vn -0.642354 -0.766381 0.000000
vn -0.618915 -0.555376 -0.555376
vn -0.618946 -0.555345 -0.555376
vn -0.642354 0.000000 -0.766381
vn -0.642354 0.000031 -0.766381
vn -0.618915 0.555376 -0.555376
vn -0.618946 0.555376 0.555345
vn -0.618946 0.555376 -0.555345
vn -0.618946 -0.555376 0.555345
vn -0.618946 -0.555376 -0.555345
vn -0.766381 0.000000 -0.642354
vn -0.555284 0.555315 -0.619037
vn 0.000000 0.766381 -0.642354
vn -0.766289 0.000000 -0.642445
vn -0.555101 0.555467 -0.619098
vn 0.000092 0.766350 -0.642415
vn 0.555345 0.555376 -0.618946
vn -0.555162 -0.555437 -0.619068
vn 0.000000 -0.766381 -0.642354
vn 0.000092 -0.766350 -0.642415
vn -0.555284 -0.555315 -0.619037
vn 0.555345 -0.555376 -0.618946
vn 0.766381 0.000000 -0.642354
vn -0.555315 0.555315 -0.619037
vn -0.555071 0.555467 -0.619129
vn 0.000122 0.766350 -0.642384
vn 0.555315 0.555467 -0.618915
vn -0.555132 -0.555437 -0.619068
vn 0.000092 -0.766350 -0.642384
vn 0.555406 -0.555315 -0.618946
vn 0.555315 -0.555467 -0.618915
vn 0.766411 0.000000 -0.642323
vn 0.766350 0.000000 -0.642384
vn 0.555406 0.555315 -0.618946
usemtl fence
s 1
f 65//30 66//31 67//32
f 68//30 69//33 70//32
f 70//32 71//34 67//32
f 69//33 70//32 66//31
f 69//33 65//30 68//30
f 68//30 65//30 72//35
f 73//36 74//36 75//35
f 76//37 77//38 73//36
f 78//39 79//40 76//37
f 71//34 79//40 80//41
f 75//35 65//30 73//36
f 65//30 67//32 73//36
f 67//32 80//41 78//39
f 73//36 67//32 76//37
f 67//32 78//39 76//37
f 72//35 68//30 74//36
f 68//30 70//32 74//36
f 70//32 71//34 79//40
f 74//36 70//32 77//38
f 70//32 79//40 77//38
f 71//34 80//41 67//32
f 70//32 67//32 66//31
f 66//31 65//30 69//33
f 65//30 75//35 72//35
f 74//36 72//35 75//35
f 77//38 74//36 73//36
f 79//40 77//38 76//37
f 79//40 78//39 80//41
f 81//30 82//42 83//32
f 84//30 85//42 86//32
f 86//32 87//43 83//32
f 85//42 86//32 82//42
f 85//42 81//30 84//30
f 84//30 81//30 88//44
f 89//36 90//36 91//44
f 92//45 93//45 89//36
f 94//39 95//39 92//45
f 87//43 95//39 96//43
f 91//44 81//30 89//36
f 81//30 83//32 89//36
f 83//32 96//43 94//39
f 89//36 83//32 92//45
f 83//32 94//39 92//45
f 88//44 84//30 90//36
f 84//30 86//32 90//36
f 86//32 87//43 95//39
f 90//36 86//32 93//45
f 86//32 95//39 93//45
f 87//43 96//43 83//32
f 86//32 83//32 82//42
f 82//42 81//30 85//42
f 81//30 91//44 88//44
f 90//36 88//44 91//44
f 93//45 90//36 89//36
f 95//39 93//45 92//45
f 95//39 94//39 96//43
f 97//46 98//47 99//48
f 100//49 101//50 102//51
f 102//51 103//52 99//48
f 101//50 102//51 98//47
f 101//50 97//46 100//49
f 100//49 97//46 104//53
f 105//54 106//55 107//56
f 108//57 109//57 105//54
f 110//58 111//58 108//57
f 103//52 111//58 112//52
f 107//56 97//46 105//54
f 97//46 99//48 105//54
f 99//48 112//52 110//58
f 105//54 99//48 108//57
f 99//48 110//58 108//57
f 104//53 100//49 106//55
f 100//49 102//51 106//55
f 102//51 103//52 111//58
f 106//55 102//51 109//57
f 102//51 111//58 109//57
f 103//52 112//52 99//48
f 102//51 99//48 98//47
f 98//47 97//46 101//50
f 97//46 107//56 104//53
f 106//55 104//53 107//56
f 109//57 106//55 105//54
f 111//58 109//57 108//57
f 111//58 110//58 112//52
f 113//46 114//59 115//48
f 116//49 117//60 118//61
f 118//61 119//62 115//48
f 117//60 118//61 114//59
f 117//60 113//46 116//49
f 116//49 113//46 120//63
f 121//54 122//64 123//56
f 124//65 125//66 121//54
f 126//67 127//68 124//65
f 119//62 127//68 128//69
f 123//56 113//46 121//54
f 113//46 115//48 121//54
f 115//48 128//69 126//67
f 121//54 115//48 124//65
f 115//48 126//67 124//65
f 120//63 116//49 122//64
f 116//49 118//61 122//64
f 118//61 119//62 127//68
f 122//64 118//61 125//66
f 118//61 127//68 125//66
f 119//62 128//69 115//48
f 118//61 115//48 114//59
f 114//59 113//46 117//60
f 113//46 123//56 120//63
f 122//64 120//63 123//56
f 125//66 122//64 121//54
f 127//68 125//66 124//65
f 127//68 126//67 128//69
