mtllib obj/fence.mtl
o Fence
v 0.000000 -0.000000 0.100000
v -0.075000 0.000000 0.075000
v -0.100000 0.000000 0.000000
v 0.000000 1.000000 0.100000
v -0.075000 1.000000 0.075000
v -0.100000 1.000000 0.000000
v -0.075000 1.000000 -0.075000
v 0.075000 1.000000 0.075000
v 0.100000 -0.000000 -0.000000
v 0.100000 1.000000 -0.000000
v 0.075000 -0.000000 0.075000
v 0.075000 -0.000000 -0.075000
v 0.075000 1.000000 -0.075000
v -0.000000 0.000000 -0.100000
v 0.000000 1.000000 -0.100000
v -0.075000 0.000000 -0.075000
vn 0.000000 -0.642354 0.766381
vn -0.555376 -0.618915 0.555376
vn -0.766381 -0.642354 0.000000
vn -0.555376 -0.618915 -0.555376
vn 0.555376 -0.618915 0.555376
vn 0.766381 -0.642354 0.000000
vn 0.555376 -0.618915 -0.555376
vn 0.000000 -0.642354 -0.766381
usemtl fence
f 1//1 2//2 3//3
f 4//1 5//2 6//3
f 6//3 7//4 3//3
f 5//2 6//3 2//2
f 5//2 1//1 4//1
f 4//1 1//1 8//5
f 9//6 10//6 11//5
f 12//7 13//7 9//6
f 14//8 15//8 12//7
f 7//4 15//8 16//4
f 11//5 1//1 9//6
f 1//1 3//3 9//6
f 3//3 16//4 14//8
f 9//6 3//3 12//7
f 3//3 14//8 12//7
f 8//5 4//1 10//6
f 4//1 6//3 10//6
f 6//3 7//4 15//8
f 10//6 6//3 13//7
f 6//3 15//8 13//7
f 7//4 16//4 3//3
f 6//3 3//3 2//2
f 2//2 1//1 5//2
f 1//1 11//5 8//5
f 10//6 8//5 11//5
f 13//7 10//6 9//6
f 15//8 13//7 12//7
f 15//8 14//8 16//4
