mtllib fence.mtl
o Fencelong
v 0.000000 -0.000000 0.080000
v 0.000000 0.060000 0.060000
v 0.000000 0.080000 0.000000
v 128.000000 -0.000000 0.080000
v 128.000000 0.060000 0.060000
v 128.000000 0.080000 0.000000
v 128.000000 0.060000 -0.060000
v 128.000000 -0.060000 0.060000
v 0.000000 -0.080000 -0.000000
v 128.000000 -0.080000 -0.000000
v 0.000000 -0.060000 0.060000
v 0.000000 -0.060000 -0.060000
v 128.000000 -0.060000 -0.060000
v 0.000000 0.000000 -0.080000
v 128.000000 0.000000 -0.080000
v 0.000000 0.060000 -0.060000
vn -0.642354 0.000000 0.766381
vn -0.618915 0.555376 0.555376
vn -0.642354 0.766381 0.000000
vn -0.642354 0.000061 0.766381
vn -0.618854 0.555498 0.555315
vn -0.619007 0.555254 -0.555437
vn -0.619068 -0.555101 0.555498
vn -0.642354 -0.766381 0.000000
vn -0.642384 -0.766381 0.000000
vn -0.618915 -0.555376 0.555376
vn -0.618915 -0.555376 -0.555376
vn -0.642354 0.000000 -0.766381
vn -0.642354 0.000031 -0.766381
vn -0.618915 0.555376 -0.555376
usemtl fence
f 1//1 2//2 3//3
f 4//4 5//5 6//3
f 6//3 7//6 3//3
f 5//5 6//3 2//2
f 5//5 1//1 4//4
f 4//4 1//1 8//7
f 9//8 10//9 11//10
f 12//11 13//11 9//8
f 14//12 15//13 12//11
f 7//6 15//13 16//14
f 11//10 1//1 9//8
f 1//1 3//3 9//8
f 3//3 16//14 14//12
f 9//8 3//3 12//11
f 3//3 14//12 12//11
f 8//7 4//4 10//9
f 4//4 6//3 10//9
f 6//3 7//6 15//13
f 10//9 6//3 13//11
f 6//3 15//13 13//11
f 7//6 16//14 3//3
f 6//3 3//3 2//2
f 2//2 1//1 5//5
f 1//1 11//10 8//7
f 10//9 8//7 11//10
f 13//11 10//9 9//8
f 15//13 13//11 12//11
f 15//13 14//12 16//14
